<svg xmlns="http://www.w3.org/2000/svg" xmlns:xlink="http://www.w3.org/1999/xlink" viewBox="0 0 500 500"><defs><clipPath id="freepik--clip-path--inject-1"><path d="M202.8,264.23s8.56,45.29,2.08,65.18c-29-4.75-59.4,14-81.48-2.92.82-24.09,5.29-53.86,9.37-61.26C132.77,265.23,170.52,261.58,202.8,264.23Z" style="fill:none"></path></clipPath></defs><g id="freepik--background-complete--inject-1"><rect y="382.4" width="500" height="0.25" style="fill:#ebebeb"></rect><rect x="102.02" y="398.49" width="33.12" height="0.25" style="fill:#ebebeb"></rect><rect x="171.14" y="390.92" width="43.55" height="0.25" style="fill:#ebebeb"></rect><rect x="52.46" y="389.21" width="48.56" height="0.25" style="fill:#ebebeb"></rect><rect x="247.61" y="392.59" width="34.29" height="0.25" style="fill:#ebebeb"></rect><rect x="442.46" y="392.59" width="7.44" height="0.25" style="fill:#ebebeb"></rect><rect x="290.8" y="392.59" width="48.57" height="0.25" style="fill:#ebebeb"></rect><rect x="326.62" y="396.81" width="93.68" height="0.25" style="fill:#ebebeb"></rect><path d="M237,337.8H43.91a5.71,5.71,0,0,1-5.7-5.71V60.66A5.71,5.71,0,0,1,43.91,55H237a5.71,5.71,0,0,1,5.71,5.71V332.09A5.71,5.71,0,0,1,237,337.8ZM43.91,55.2a5.46,5.46,0,0,0-5.45,5.46V332.09a5.46,5.46,0,0,0,5.45,5.46H237a5.47,5.47,0,0,0,5.46-5.46V60.66A5.47,5.47,0,0,0,237,55.2Z" style="fill:#ebebeb"></path><path d="M453.31,337.8H260.21a5.72,5.72,0,0,1-5.71-5.71V60.66A5.72,5.72,0,0,1,260.21,55h193.1A5.71,5.71,0,0,1,459,60.66V332.09A5.71,5.71,0,0,1,453.31,337.8ZM260.21,55.2a5.47,5.47,0,0,0-5.46,5.46V332.09a5.47,5.47,0,0,0,5.46,5.46h193.1a5.47,5.47,0,0,0,5.46-5.46V60.66a5.47,5.47,0,0,0-5.46-5.46Z" style="fill:#ebebeb"></path><path d="M356.27,242.07H54.06a8.16,8.16,0,0,1-8.23-9L61.48,47a10,10,0,0,1,9.74-9h302.2a8.15,8.15,0,0,1,8.23,9L366,233.08A10,10,0,0,1,356.27,242.07Z" style="fill:#e0e0e0"></path><path d="M353.82,242.07H51.62a8.15,8.15,0,0,1-8.23-9L59,47a10,10,0,0,1,9.74-9H371a8.16,8.16,0,0,1,8.23,9L363.56,233.08A10,10,0,0,1,353.82,242.07Z" style="fill:#ebebeb"></path><polygon points="365.26 212.83 45.09 212.83 58.92 48.31 379.09 48.31 365.26 212.83" style="fill:#fafafa"></polygon><path d="M304.6,194.12a5.4,5.4,0,0,1,5.26-4.86H461.19a4.42,4.42,0,0,1,4.45,4.86l-1.32,15.64h-161Z" style="fill:#e6e6e6"></path><path d="M343.11,203.61a3.75,3.75,0,0,1-3.79-4.13l.43,0-.43,0a4.51,4.51,0,0,1,4.41-4.07,3.75,3.75,0,0,1,3.79,4.14A4.51,4.51,0,0,1,343.11,203.61Zm.62-7.34a3.63,3.63,0,0,0-3.55,3.28,2.89,2.89,0,0,0,2.93,3.2,3.65,3.65,0,0,0,3.56-3.27,3,3,0,0,0-.75-2.28A2.94,2.94,0,0,0,343.73,196.27Z" style="fill:#fff"></path><path d="M330.1,203.61a3.76,3.76,0,0,1-3.8-4.13l.43,0-.43,0a4.51,4.51,0,0,1,4.41-4.07,3.75,3.75,0,0,1,2.82,1.21,3.81,3.81,0,0,1,1,2.93A4.51,4.51,0,0,1,330.1,203.61Zm.61-7.34a3.64,3.64,0,0,0-3.55,3.28,2.89,2.89,0,0,0,2.94,3.2,3.64,3.64,0,0,0,3.55-3.27,2.89,2.89,0,0,0-2.94-3.21Z" style="fill:#fff"></path><path d="M317.08,203.61a3.75,3.75,0,0,1-3.79-4.13l.43,0-.43,0a4.51,4.51,0,0,1,4.41-4.07,3.75,3.75,0,0,1,3.79,4.14A4.51,4.51,0,0,1,317.08,203.61Zm.62-7.34a3.63,3.63,0,0,0-3.55,3.28,2.89,2.89,0,0,0,2.93,3.2,3.65,3.65,0,0,0,3.56-3.27,3,3,0,0,0-.75-2.28A2.94,2.94,0,0,0,317.7,196.27Z" style="fill:#fff"></path><path d="M450.61,315.08H299.29a4.41,4.41,0,0,1-4.45-4.86l8.44-100.46h161l-8.44,100.46A5.41,5.41,0,0,1,450.61,315.08Z" style="fill:#f5f5f5"></path><path d="M292.39,210.38a5.4,5.4,0,0,1,5.27-4.86H449a4.41,4.41,0,0,1,4.45,4.86L452.12,226h-161Z" style="fill:#f5f5f5"></path><path d="M330.91,219.87a3.76,3.76,0,0,1-3.8-4.13l.43,0-.43,0a4.51,4.51,0,0,1,4.41-4.07,3.76,3.76,0,0,1,3.8,4.14A4.51,4.51,0,0,1,330.91,219.87Zm.61-7.34a3.64,3.64,0,0,0-3.55,3.28,2.89,2.89,0,0,0,2.94,3.2,3.64,3.64,0,0,0,3.55-3.27,2.89,2.89,0,0,0-2.94-3.21Z" style="fill:#e6e6e6"></path><path d="M317.89,219.87a3.75,3.75,0,0,1-3.79-4.13l.43,0-.43,0a4.51,4.51,0,0,1,4.41-4.07,3.75,3.75,0,0,1,3.79,4.14A4.51,4.51,0,0,1,317.89,219.87Zm.62-7.34a3.65,3.65,0,0,0-3.56,3.28,2.89,2.89,0,0,0,2.94,3.2,3.63,3.63,0,0,0,3.55-3.27,2.89,2.89,0,0,0-2.93-3.21Z" style="fill:#e6e6e6"></path><path d="M304.88,219.87a3.75,3.75,0,0,1-2.82-1.21,3.8,3.8,0,0,1-1-2.92l.43,0-.43,0a4.51,4.51,0,0,1,4.41-4.07,3.76,3.76,0,0,1,3.8,4.14A4.51,4.51,0,0,1,304.88,219.87Zm.61-7.34a3.64,3.64,0,0,0-3.55,3.28,2.89,2.89,0,0,0,2.94,3.2,3.64,3.64,0,0,0,3.55-3.27,3,3,0,0,0-.75-2.28A2.93,2.93,0,0,0,305.49,212.53Z" style="fill:#e6e6e6"></path><path d="M438.41,331.34H287.08a4.42,4.42,0,0,1-4.45-4.86L291.08,226h161l-8.45,100.46A5.4,5.4,0,0,1,438.41,331.34Z" style="fill:#fafafa"></path><path d="M280.18,226.64a5.41,5.41,0,0,1,5.27-4.86H436.77a4.41,4.41,0,0,1,4.45,4.86l-1.31,15.64h-161Z" style="fill:#fafafa"></path><path d="M318.7,236.13a3.75,3.75,0,0,1-3.79-4.14l.42,0-.42,0a4.5,4.5,0,0,1,4.41-4.06,3.75,3.75,0,0,1,3.79,4.14A4.51,4.51,0,0,1,318.7,236.13Zm.62-7.34a3.64,3.64,0,0,0-3.56,3.28,2.89,2.89,0,0,0,2.94,3.2,3.63,3.63,0,0,0,3.55-3.28,2.89,2.89,0,0,0-2.93-3.2Z" style="fill:#f0f0f0"></path><path d="M305.68,236.13a3.75,3.75,0,0,1-3.79-4.14l.43,0-.43,0a4.51,4.51,0,0,1,4.41-4.06,3.75,3.75,0,0,1,3.79,4.14A4.5,4.5,0,0,1,305.68,236.13Zm.62-7.34a3.63,3.63,0,0,0-3.55,3.28,2.89,2.89,0,0,0,2.93,3.2,3.64,3.64,0,0,0,3.56-3.28,2.89,2.89,0,0,0-2.94-3.2Z" style="fill:#f0f0f0"></path><path d="M292.67,236.13a3.75,3.75,0,0,1-3.79-4.14l.42,0-.42,0a4.5,4.5,0,0,1,4.41-4.06,3.75,3.75,0,0,1,3.79,4.14A4.51,4.51,0,0,1,292.67,236.13Zm.62-7.34a3.64,3.64,0,0,0-3.56,3.28,2.89,2.89,0,0,0,2.94,3.2,3.63,3.63,0,0,0,3.55-3.28,2.89,2.89,0,0,0-2.93-3.2Z" style="fill:#f0f0f0"></path><path d="M426.2,347.6H274.87a4.42,4.42,0,0,1-4.45-4.86l8.45-100.46h161l-8.45,100.46A5.4,5.4,0,0,1,426.2,347.6Z" style="fill:#e6e6e6"></path></g><g id="freepik--Shadow--inject-1"><ellipse id="freepik--path--inject-1" cx="250" cy="426.24" rx="193.89" ry="11.32" style="fill:#f5f5f5"></ellipse></g><g id="freepik--google-sitemap--inject-1"><path d="M428.13,327.1H86.54a2.76,2.76,0,0,1-2.78-3L96.83,96.93A3.16,3.16,0,0,1,100,94H441.53a2.76,2.76,0,0,1,2.79,3L431.25,324.15A3.17,3.17,0,0,1,428.13,327.1Z" style="fill:#f0f0f0"></path><path d="M428.13,327.65H86.54a3.31,3.31,0,0,1-3.33-3.53L96.28,96.9A3.72,3.72,0,0,1,100,93.43H441.53A3.3,3.3,0,0,1,444.86,97L431.8,324.18A3.73,3.73,0,0,1,428.13,327.65ZM100,94.53A2.61,2.61,0,0,0,97.37,97L84.31,324.18a2.2,2.2,0,0,0,2.23,2.37H428.13a2.61,2.61,0,0,0,2.57-2.43L443.77,96.9a2.23,2.23,0,0,0-.6-1.68,2.2,2.2,0,0,0-1.64-.69Z" style="fill:#263238"></path><path d="M424,322.56H82.44a2.75,2.75,0,0,1-2.78-2.95L92.72,92.39a3.18,3.18,0,0,1,3.12-3H437.43a2.76,2.76,0,0,1,2.78,3L427.15,319.61A3.17,3.17,0,0,1,424,322.56Z" style="fill:#fff"></path><path d="M424,323.11H82.44a3.29,3.29,0,0,1-3.33-3.53L92.18,92.36a3.71,3.71,0,0,1,3.66-3.46H437.43a3.31,3.31,0,0,1,2.44,1,3.35,3.35,0,0,1,.89,2.5L427.69,319.64A3.72,3.72,0,0,1,424,323.11ZM95.84,90a2.61,2.61,0,0,0-2.57,2.44L80.2,319.64a2.29,2.29,0,0,0,.6,1.69,2.24,2.24,0,0,0,1.64.69H424a2.62,2.62,0,0,0,2.57-2.44L439.67,92.36a2.28,2.28,0,0,0-.6-1.68,2.24,2.24,0,0,0-1.64-.69Z" style="fill:#263238"></path><path d="M437.43,89.44H95.84a3.18,3.18,0,0,0-3.12,3l-1.23,21.39H439l1.23-21.39A2.76,2.76,0,0,0,437.43,89.44Z" style="fill:#263238"></path><polygon points="117.08 102.57 102.36 102.57 102.47 100.65 117.19 100.65 117.08 102.57" style="fill:#fff"></polygon><polygon points="116.8 107.42 102.08 107.42 102.19 105.5 116.91 105.5 116.8 107.42" style="fill:#fff"></polygon><polygon points="117.36 97.72 102.64 97.72 102.75 95.8 117.47 95.8 117.36 97.72" style="fill:#fff"></polygon><path d="M262.51,108.3H129.41a2.84,2.84,0,0,1-2.87-3L127,98a3.27,3.27,0,0,1,3.22-3h133.1a2.86,2.86,0,0,1,2.87,3l-.42,7.29A3.28,3.28,0,0,1,262.51,108.3Z" style="fill:#fff;opacity:0.2"></path><g style="opacity:0.2"><polygon points="195.92 138.6 90.07 138.6 91.49 113.78 197.35 113.78 195.92 138.6" style="fill:#fff"></polygon><path d="M195.92,138.87H90.07a.28.28,0,0,1-.2-.08.32.32,0,0,1-.08-.21l1.43-24.82a.28.28,0,0,1,.27-.26H197.35a.33.33,0,0,1,.2.09.31.31,0,0,1,.07.2l-1.43,24.82A.27.27,0,0,1,195.92,138.87Zm-105.56-.54h105.3l1.4-24.28H91.75Z" style="fill:#263238"></path><polygon points="194.49 163.42 88.64 163.42 90.07 138.6 195.92 138.6 194.49 163.42" style="fill:#fff"></polygon><path d="M194.49,163.69H88.64a.28.28,0,0,1-.2-.08.27.27,0,0,1-.07-.21l1.42-24.82a.27.27,0,0,1,.28-.25H195.92a.3.3,0,0,1,.2.08.26.26,0,0,1,.07.2l-1.42,24.83A.27.27,0,0,1,194.49,163.69Zm-105.56-.54h105.3l1.4-24.28H90.33Z" style="fill:#263238"></path><polygon points="193.06 188.24 87.21 188.24 88.64 163.42 194.49 163.42 193.06 188.24" style="fill:#fff"></polygon><path d="M193.06,188.51H87.21a.3.3,0,0,1-.2-.08.27.27,0,0,1-.07-.21l1.43-24.82a.26.26,0,0,1,.27-.25H194.49a.28.28,0,0,1,.2.08.32.32,0,0,1,.08.21l-1.43,24.82A.27.27,0,0,1,193.06,188.51ZM87.5,188H192.81l1.39-24.28H88.9Z" style="fill:#263238"></path><polygon points="186.55 301.51 80.7 301.51 81.91 280.47 187.76 280.47 186.55 301.51" style="fill:#fff"></polygon><path d="M186.55,301.79H80.7a.25.25,0,0,1-.2-.09.3.3,0,0,1-.08-.2l1.22-21.05a.27.27,0,0,1,.27-.26H187.76a.25.25,0,0,1,.2.09.25.25,0,0,1,.07.2l-1.21,21A.26.26,0,0,1,186.55,301.79ZM81,301.24h105.3l1.18-20.5H82.17Z" style="fill:#263238"></path><path d="M185.34,322.56H82.64a2.94,2.94,0,0,1-3-3.14l1-17.9H186.55Z" style="fill:#fff"></path><path d="M185.34,322.84H82.64a3.21,3.21,0,0,1-2.37-1,3.17,3.17,0,0,1-.87-2.43l1-17.9a.28.28,0,0,1,.28-.26H186.55a.25.25,0,0,1,.2.09.25.25,0,0,1,.07.2l-1.21,21.05A.27.27,0,0,1,185.34,322.84ZM81,301.79l-1,17.64a2.66,2.66,0,0,0,2.7,2.86H185.08l1.18-20.5Z" style="fill:#263238"></path><polygon points="187.76 280.47 81.91 280.47 87.21 188.24 193.06 188.24 187.76 280.47" style="fill:#fff"></polygon><path d="M187.76,280.74H81.91a.25.25,0,0,1-.2-.09.24.24,0,0,1-.07-.2l5.3-92.23a.27.27,0,0,1,.27-.25H193.06a.27.27,0,0,1,.28.29L188,280.48A.26.26,0,0,1,187.76,280.74ZM82.2,280.19H187.5l5.27-91.68H87.47Z" style="fill:#263238"></path><polyline points="211.38 322.56 221.17 152.23 410.74 152.23 400.94 322.56" style="fill:#fff"></polyline><path d="M400.94,322.84h0a.27.27,0,0,1-.25-.29l9.78-170h-189l-9.78,170.08a.28.28,0,0,1-.55,0l9.8-170.34a.28.28,0,0,1,.27-.26H410.74a.25.25,0,0,1,.19.09.26.26,0,0,1,.08.2l-9.8,170.34A.27.27,0,0,1,400.94,322.84Z" style="fill:#263238"></path><path d="M237.94,305.62H227a.81.81,0,0,1-.82-.88l.14-2.49a.94.94,0,0,1,.93-.87h10.93a.81.81,0,0,1,.83.87l-.14,2.49A1,1,0,0,1,237.94,305.62Z" style="fill:#263238"></path><path d="M267.8,305.62H256.87a.83.83,0,0,1-.83-.88l.15-2.49a.93.93,0,0,1,.92-.87h10.94a.81.81,0,0,1,.82.87l-.14,2.49A.94.94,0,0,1,267.8,305.62Z" style="fill:#263238"></path><path d="M297.67,305.62H286.73a.81.81,0,0,1-.82-.88l.14-2.49a.94.94,0,0,1,.93-.87h10.93a.81.81,0,0,1,.83.87l-.15,2.49A.93.93,0,0,1,297.67,305.62Z" style="fill:#263238"></path><path d="M327.53,305.62H316.6a.82.82,0,0,1-.83-.88l.15-2.49a.93.93,0,0,1,.92-.87h10.94a.81.81,0,0,1,.82.87l-.14,2.49A.94.94,0,0,1,327.53,305.62Z" style="fill:#263238"></path><path d="M357.4,305.62H346.46a.81.81,0,0,1-.82-.88l.14-2.49a.94.94,0,0,1,.93-.87h10.93a.83.83,0,0,1,.83.87l-.15,2.49A.93.93,0,0,1,357.4,305.62Z" style="fill:#263238"></path><path d="M387.26,305.62H376.33a.82.82,0,0,1-.83-.88l.14-2.49a1,1,0,0,1,.93-.87h10.94a.81.81,0,0,1,.82.87l-.14,2.49A.94.94,0,0,1,387.26,305.62Z" style="fill:#263238"></path><path d="M410.15,147.05H387.54a.82.82,0,0,1-.82-.88l.14-2.49a1,1,0,0,1,.93-.88H410.4a.83.83,0,0,1,.83.88l-.15,2.49A.94.94,0,0,1,410.15,147.05Z" style="fill:#263238"></path><path d="M132.1,153.93H98.92a1.17,1.17,0,0,1-1.18-1.25l.19-3.34a1.34,1.34,0,0,1,1.32-1.25h33.19a1.17,1.17,0,0,1,1.18,1.25l-.2,3.34A1.34,1.34,0,0,1,132.1,153.93Z" style="fill:#263238"></path><path d="M152.39,207.63H95.76a1.1,1.1,0,0,1-1.11-1.18l.16-2.86a1.27,1.27,0,0,1,1.25-1.18h56.62a1.11,1.11,0,0,1,1.12,1.18l-.17,2.86A1.26,1.26,0,0,1,152.39,207.63Z" style="fill:#263238"></path><path d="M135.75,227.17H94.63A1.1,1.1,0,0,1,93.52,226l.17-2.86A1.26,1.26,0,0,1,94.93,222h41.12a1.1,1.1,0,0,1,1.11,1.18L137,226A1.25,1.25,0,0,1,135.75,227.17Z" style="fill:#263238"></path><path d="M126.84,246.72H93.51a1.1,1.1,0,0,1-1.11-1.18l.16-2.85a1.27,1.27,0,0,1,1.25-1.18h33.33a1.11,1.11,0,0,1,1.11,1.18l-.17,2.85A1.26,1.26,0,0,1,126.84,246.72Z" style="fill:#263238"></path><path d="M141.53,266.27H92.39a1.1,1.1,0,0,1-1.11-1.18l.16-2.86a1.27,1.27,0,0,1,1.25-1.18h49.14a1.1,1.1,0,0,1,1.11,1.18l-.16,2.86A1.27,1.27,0,0,1,141.53,266.27Z" style="fill:#263238"></path><path d="M124,178.75H97.49a1.17,1.17,0,0,1-1.18-1.25l.2-3.34a1.34,1.34,0,0,1,1.31-1.25h26.53a1.17,1.17,0,0,1,1.18,1.25l-.2,3.34A1.34,1.34,0,0,1,124,178.75Z" style="fill:#263238"></path><path d="M117.39,293.91H90.87a1.17,1.17,0,0,1-1.18-1.25l.19-3.34a1.34,1.34,0,0,1,1.32-1.25h26.53a1.16,1.16,0,0,1,1.17,1.25l-.19,3.34A1.34,1.34,0,0,1,117.39,293.91Z" style="fill:#263238"></path><polygon points="313.23 199.68 265.83 199.68 268.56 152.23 315.95 152.23 313.23 199.68" style="fill:#fff"></polygon><path d="M313.23,200H265.84a.27.27,0,0,1-.28-.29l2.73-47.45a.28.28,0,0,1,.27-.26H316a.25.25,0,0,1,.2.09.26.26,0,0,1,.08.2l-2.73,47.45A.27.27,0,0,1,313.23,200Zm-47.11-.55H313l2.69-46.9H268.82Z" style="fill:#263238"></path><polygon points="233.37 213.04 228.38 213.04 228.67 208.04 233.66 208.04 233.37 213.04" style="fill:#fff"></polygon><path d="M233.37,213.31h-5a.32.32,0,0,1-.2-.08.31.31,0,0,1-.07-.21l.29-5a.27.27,0,0,1,.27-.26h5a.27.27,0,0,1,.2.09.24.24,0,0,1,.07.2l-.29,5A.26.26,0,0,1,233.37,213.31Zm-4.7-.54h4.44l.26-4.45h-4.44Z" style="fill:#263238"></path><polygon points="360.62 199.68 313.23 199.68 315.95 152.23 363.35 152.23 360.62 199.68" style="fill:#fff"></polygon><path d="M360.62,200H313.23a.27.27,0,0,1-.28-.29l2.73-47.45A.28.28,0,0,1,316,152h47.39a.25.25,0,0,1,.2.09.26.26,0,0,1,.08.2l-2.73,47.45A.27.27,0,0,1,360.62,200Zm-47.1-.55h46.84l2.69-46.9H316.21Z" style="fill:#263238"></path><polygon points="408.01 199.68 360.62 199.68 363.35 152.23 410.74 152.23 408.01 199.68" style="fill:#fff"></polygon><path d="M408,200H360.62a.28.28,0,0,1-.2-.08.32.32,0,0,1-.08-.21l2.73-47.45a.28.28,0,0,1,.27-.26h47.4a.25.25,0,0,1,.19.09.26.26,0,0,1,.08.2l-2.73,47.45A.27.27,0,0,1,408,200Zm-47.1-.55h46.84l2.7-46.9H363.6Z" style="fill:#263238"></path><path d="M438.27,126.46H196.63a.27.27,0,0,1-.27-.27.28.28,0,0,1,.27-.28H438.27a.28.28,0,0,1,.27.28A.27.27,0,0,1,438.27,126.46Z" style="fill:#263238"></path><path d="M396.13,220.23H228a.14.14,0,0,1-.14-.14A.13.13,0,0,1,228,220H396.13a.13.13,0,0,1,.13.13A.13.13,0,0,1,396.13,220.23Z" style="fill:#263238"></path><path d="M395.26,235.32H227.11a.14.14,0,1,1,0-.28H395.26a.14.14,0,0,1,0,.28Z" style="fill:#263238"></path><path d="M394.39,250.4H226.24a.13.13,0,0,1-.13-.13.13.13,0,0,1,.13-.14H394.39a.14.14,0,0,1,.14.14A.13.13,0,0,1,394.39,250.4Z" style="fill:#263238"></path><path d="M393.52,265.49H225.37a.13.13,0,0,1-.13-.14.13.13,0,0,1,.13-.13H393.52a.13.13,0,0,1,.14.13A.14.14,0,0,1,393.52,265.49Z" style="fill:#263238"></path><path d="M392.65,280.58H224.51a.14.14,0,0,1-.14-.14.14.14,0,0,1,.14-.14H392.65a.14.14,0,0,1,.14.14A.14.14,0,0,1,392.65,280.58Z" style="fill:#263238"></path><path d="M391.79,295.67H223.64a.14.14,0,0,1-.14-.14.14.14,0,0,1,.14-.14H391.79a.13.13,0,0,1,.13.14A.14.14,0,0,1,391.79,295.67Z" style="fill:#263238"></path><polygon points="277.49 161.6 272.5 161.6 272.79 156.61 277.78 156.61 277.49 161.6" style="fill:#fff"></polygon><path d="M277.49,161.88h-5a.28.28,0,0,1-.19-.09.27.27,0,0,1-.08-.2l.29-5a.28.28,0,0,1,.27-.26h5a.25.25,0,0,1,.2.09.25.25,0,0,1,.07.2l-.28,5A.28.28,0,0,1,277.49,161.88Zm-4.7-.55h4.44l.26-4.45h-4.44Z" style="fill:#263238"></path><polygon points="324.78 161.6 319.8 161.6 320.08 156.61 325.07 156.61 324.78 161.6" style="fill:#fff"></polygon><path d="M324.78,161.88h-5a.29.29,0,0,1-.2-.09.27.27,0,0,1-.08-.2l.29-5a.28.28,0,0,1,.27-.26h5a.25.25,0,0,1,.2.09.25.25,0,0,1,.07.2l-.28,5A.28.28,0,0,1,324.78,161.88Zm-4.69-.55h4.44l.25-4.45h-4.44Z" style="fill:#263238"></path><polygon points="372.17 161.6 367.19 161.6 367.47 156.61 372.46 156.61 372.17 161.6" style="fill:#fff"></polygon><path d="M372.17,161.88h-5a.29.29,0,0,1-.2-.09.27.27,0,0,1-.08-.2l.29-5a.28.28,0,0,1,.27-.26h5a.25.25,0,0,1,.2.09.25.25,0,0,1,.07.2l-.28,5A.28.28,0,0,1,372.17,161.88Zm-4.69-.55h4.44l.25-4.45h-4.44Z" style="fill:#263238"></path></g><polygon points="240.52 295.53 225.59 295.53 226.19 285 241.12 285 240.52 295.53" style="fill:#407BFF"></polygon><path d="M240.52,295.67H225.59a.12.12,0,0,1-.1-.05.12.12,0,0,1,0-.1l.6-10.52a.14.14,0,0,1,.14-.13h14.93a.12.12,0,0,1,.1,0,.13.13,0,0,1,0,.1l-.61,10.53A.13.13,0,0,1,240.52,295.67Zm-14.79-.28h14.66l.59-10.25H226.32Z" style="fill:#407BFF"></path><polygon points="255.45 295.53 240.52 295.53 241.87 271.97 256.81 271.97 255.45 295.53" style="fill:#407BFF"></polygon><path d="M255.45,295.67H240.52a.12.12,0,0,1-.1-.05.12.12,0,0,1,0-.1L241.74,272a.13.13,0,0,1,.13-.13h14.94a.14.14,0,0,1,.13.15l-1.35,23.56A.15.15,0,0,1,255.45,295.67Zm-14.79-.28h14.66l1.34-23.29H242Z" style="fill:#407BFF"></path><polygon points="270.38 295.53 255.45 295.53 257.69 256.55 272.62 256.55 270.38 295.53" style="fill:#407BFF"></polygon><path d="M270.38,295.67H255.45a.14.14,0,0,1-.1-.05.15.15,0,0,1,0-.1l2.25-39a.12.12,0,0,1,.13-.12h14.93a.12.12,0,0,1,.1,0,.13.13,0,0,1,0,.1l-2.24,39A.13.13,0,0,1,270.38,295.67Zm-14.78-.28h14.65l2.23-38.7H257.82Z" style="fill:#407BFF"></path><polygon points="285.31 295.53 270.38 295.53 273.37 243.68 288.3 243.68 285.31 295.53" style="fill:#407BFF"></polygon><path d="M285.31,295.67H270.38a.16.16,0,0,1-.1-.05.11.11,0,0,1,0-.1l3-51.85a.13.13,0,0,1,.13-.13H288.3a.21.21,0,0,1,.1,0,.13.13,0,0,1,0,.1l-3,51.86A.13.13,0,0,1,285.31,295.67Zm-14.78-.28h14.66l3-51.58H273.49Z" style="fill:#407BFF"></path><polygon points="300.25 295.53 285.31 295.53 288.57 238.89 303.5 238.89 300.25 295.53" style="fill:#407BFF"></polygon><path d="M300.25,295.67H285.31a.12.12,0,0,1-.09-.05.12.12,0,0,1,0-.1l3.26-56.64a.13.13,0,0,1,.13-.13H303.5a.12.12,0,0,1,.1.05.12.12,0,0,1,0,.1l-3.26,56.64A.13.13,0,0,1,300.25,295.67Zm-14.79-.28h14.66L303.36,239H288.7Z" style="fill:#407BFF"></path><polygon points="315.18 295.53 300.25 295.53 303.12 245.52 318.06 245.52 315.18 295.53" style="fill:#407BFF"></polygon><path d="M315.18,295.67H300.25a.12.12,0,0,1-.1-.05.12.12,0,0,1,0-.1l2.88-50a.13.13,0,0,1,.13-.13h14.94a.11.11,0,0,1,.09,0,.14.14,0,0,1,0,.1l-2.87,50A.15.15,0,0,1,315.18,295.67Zm-14.79-.28h14.66l2.86-49.74H303.25Z" style="fill:#407BFF"></path><polygon points="330.11 295.53 315.18 295.53 317.89 248.41 332.82 248.41 330.11 295.53" style="fill:#407BFF"></polygon><path d="M330.11,295.67H315.18a.14.14,0,0,1-.1-.05.12.12,0,0,1,0-.1l2.71-47.12a.15.15,0,0,1,.14-.13h14.93a.15.15,0,0,1,.1,0,.14.14,0,0,1,0,.1l-2.71,47.13A.15.15,0,0,1,330.11,295.67Zm-14.79-.28H330l2.7-46.85H318Z" style="fill:#407BFF"></path><polygon points="345.04 295.53 330.11 295.53 333.09 243.68 348.03 243.68 345.04 295.53" style="fill:#407BFF"></polygon><path d="M345,295.67H330.11a.14.14,0,0,1-.1-.05.11.11,0,0,1,0-.1l3-51.85a.13.13,0,0,1,.13-.13H348a.21.21,0,0,1,.1,0,.19.19,0,0,1,0,.1l-3,51.86A.13.13,0,0,1,345,295.67Zm-14.78-.28h14.65l3-51.58H333.22Z" style="fill:#407BFF"></path><polygon points="359.98 295.53 345.04 295.53 347.42 254.22 362.35 254.22 359.98 295.53" style="fill:#407BFF"></polygon><path d="M360,295.67H345a.16.16,0,0,1-.1-.05.11.11,0,0,1,0-.1l2.37-41.31a.15.15,0,0,1,.14-.13h14.93a.12.12,0,0,1,.1,0,.12.12,0,0,1,0,.1l-2.38,41.31A.13.13,0,0,1,360,295.67Zm-14.79-.28h14.66l2.36-41H347.55Z" style="fill:#407BFF"></path><polygon points="374.91 295.53 359.98 295.53 363.2 239.47 378.13 239.47 374.91 295.53" style="fill:#407BFF"></polygon><path d="M374.91,295.67H360a.12.12,0,0,1-.1-.05.12.12,0,0,1,0-.1l3.22-56a.14.14,0,0,1,.14-.13h14.93a.12.12,0,0,1,.1,0,.13.13,0,0,1,0,.1l-3.22,56.06A.15.15,0,0,1,374.91,295.67Zm-14.79-.28h14.66L378,239.61H363.33Z" style="fill:#407BFF"></path><polygon points="389.84 295.53 374.91 295.53 378.84 227.21 393.77 227.21 389.84 295.53" style="fill:#407BFF"></polygon><path d="M389.84,295.67H374.91a.12.12,0,0,1-.1-.05.12.12,0,0,1,0-.1l3.93-68.32a.13.13,0,0,1,.14-.13h14.93a.14.14,0,0,1,.1.05.15.15,0,0,1,0,.1L390,295.54A.15.15,0,0,1,389.84,295.67Zm-14.79-.28h14.66l3.91-68H379Z" style="fill:#407BFF"></path><polygon points="265.83 199.68 218.44 199.68 221.17 152.23 268.56 152.23 265.83 199.68" style="fill:#407BFF"></polygon><path d="M265.84,200h-47.4a.27.27,0,0,1-.19-.08.28.28,0,0,1-.08-.21l2.73-47.45a.28.28,0,0,1,.27-.26h47.39a.25.25,0,0,1,.2.09.3.3,0,0,1,.08.2l-2.73,47.45A.27.27,0,0,1,265.84,200Zm-47.11-.55h46.85l2.69-46.9H221.43Z" style="fill:#407BFF"></path><path d="M230,161.88h-5a.28.28,0,0,1-.19-.09.27.27,0,0,1-.08-.2l.29-5a.28.28,0,0,1,.27-.26h5a.25.25,0,0,1,.2.09.25.25,0,0,1,.07.2l-.28,5A.28.28,0,0,1,230,161.88Zm-4.7-.55h4.44l.26-4.45h-4.44Z" style="fill:#fff"></path></g><g id="freepik--Character--inject-1"><path d="M143,209.1l-1.23,1.58-1.33,1.76c-.88,1.2-1.77,2.4-2.6,3.62-1.7,2.44-3.26,4.93-4.65,7.39-.7,1.24-1.34,2.48-1.9,3.7a34.92,34.92,0,0,0-1.52,3.61,23.41,23.41,0,0,0-1.44,6.42l-.72-3c.6,1.8,1.21,3.68,2,5.57s1.56,3.85,2.48,5.78,1.81,3.92,2.75,5.91,2,4,2.81,6l.18.41a5.32,5.32,0,0,1-8,6.45,59.56,59.56,0,0,1-5.77-4.75c-1.8-1.67-3.5-3.44-5.16-5.3a71,71,0,0,1-4.66-5.94,59.24,59.24,0,0,1-4.08-6.73,6.25,6.25,0,0,1-.63-2.11l-.09-.92a37.47,37.47,0,0,1,1.12-13.33A58.41,58.41,0,0,1,114.69,214a79.12,79.12,0,0,1,5.63-9.77c1-1.54,2.09-3.05,3.23-4.51.57-.73,1.14-1.46,1.74-2.18l.92-1.09,1.05-1.18a10.46,10.46,0,0,1,16.12,13.32Z" style="fill:#b65b52"></path><path d="M138.75,184.5c-9.3,2.84-18.66,17.9-18.66,17.9.15,5.65,8.46,18.84,14.69,21.9a31.37,31.37,0,0,0,10.15-13.85C148.3,200.86,143.38,186.13,138.75,184.5Z" style="fill:#407BFF"></path><path d="M135.53,256.62,130,259.08c-4.5,4.48,2.25,9.28,2.25,9.28l2.32,3.62a3.21,3.21,0,0,0,4,1l3.87-1.7a3.35,3.35,0,0,0,2-4.2L143,263.6a6.69,6.69,0,0,0-2-2.57Z" style="fill:#b55b52"></path><path d="M172,184.93a8.36,8.36,0,0,0-4-3.81,7.82,7.82,0,0,1-.14-5.24l-19.65-6.26c1.59,6.5,2.83,11.63.42,14.78,3.86,2.36,10.94,6.6,18.66,6.38S173.26,187.66,172,184.93Z" style="fill:#b55b52"></path><path d="M170.11,157.3c.14.75.65,1.28,1.15,1.18s.77-.78.63-1.53-.65-1.29-1.14-1.19S170,156.54,170.11,157.3Z" style="fill:#263238"></path><path d="M170.65,158.38l1.13,6.34a7,7,0,0,0,2.24-.32.84.84,0,0,0,.2-1.47A15,15,0,0,1,170.65,158.38Z" style="fill:#a02724"></path><path d="M171.43,152.72a.43.43,0,0,1-.34.25,3.56,3.56,0,0,0-2.67,1.84.44.44,0,0,1-.59.23.46.46,0,0,1-.23-.6,4.46,4.46,0,0,1,3.35-2.36.44.44,0,0,1,.51.38A.39.39,0,0,1,171.43,152.72Z" style="fill:#263238"></path><path d="M144.36,159.67c2.34,8.46,4.13,14.16,10.24,16.88,12.13,5.4,17.56-.33,18-9.26.38-8-3.52-20.52-13.26-22.34S142,151.21,144.36,159.67Z" style="fill:#b55b52"></path><polygon points="143.56 401.34 129.91 401.47 129.31 418.4 140.71 418.31 143.56 401.34" style="fill:#b55b52"></polygon><path d="M128.22,336.6c-1.15-21.73-.7-61.37,6.58-71.37l42.68-1S163.89,318.71,160.41,339c-3.62,21.09-18.6,72.74-18.6,72.74l-12.25-.38S122.39,361.4,128.22,336.6Z" style="fill:#263238"></path><polygon points="197.64 401.34 184.02 401.47 187.12 418.4 198.5 418.31 197.64 401.34" style="fill:#b55b52"></polygon><path d="M186.73,423.65h2.9l.51-1.27,1.8,1.28h16.69a10.76,10.76,0,0,0-1.69-4.31s-4.54-.52-7.17-3.32a.75.75,0,0,0-.7-.28c-1.66.39-8.27,1.8-12.4.32a.52.52,0,0,0-.72.62A48.59,48.59,0,0,1,186.73,423.65Z" style="fill:#263238"></path><path d="M167.56,336.6c-6-21.73-14.85-61.37-9.8-71.37l43.38-1s-1.91,54.48-.86,74.76c1.1,21.09-2.12,72.74-2.12,72.74l-12.18.5S167.27,361.4,167.56,336.6Z" style="fill:#263238"></path><path d="M156.58,269.55c-10.55,1.29-19.54,2.73-25.07,3.68-4.1,15.68-4.24,45.55-3.29,63.37-.18.77-.34,1.56-.5,2.37,10.21,4,21.23,2.39,32.76-.37.75-4.32,1.93-10.09,3.34-16.53C159.32,303.39,155.06,280.6,156.58,269.55Z" style="opacity:0.2"></path><path d="M200.45,288.17c-2.48-12.12-5.19-21.5-5.19-21.5-6.12.08-12.41.4-18.6.87-2.23,9-8.55,34.86-12.84,54.53,1.27,5.29,2.56,10.26,3.74,14.53v.22c10.54-2.74,21.44-5.66,32.48-5.58C199.83,319.17,200.12,302.07,200.45,288.17Z" style="opacity:0.2"></path><path d="M174.07,182.26a189.32,189.32,0,0,0-28.84.23,19.05,19.05,0,0,0-17,22.19c4.81,28.5,1.69,49.58,4.59,60.55,0,0,44.25.78,70-1,1.85-30.12-4.78-36.4-12.45-68.16C188.64,189,181.32,182.78,174.07,182.26Z" style="fill:#407BFF"></path><path d="M202.8,264.23s8.56,45.29,2.08,65.18c-29-4.75-59.4,14-81.48-2.92.82-24.09,5.29-53.86,9.37-61.26C132.77,265.23,170.52,261.58,202.8,264.23Z" style="fill:#263238"></path><g style="clip-path:url(#freepik--clip-path--inject-1)"><path d="M133,357.39l-5.13.48c13.67-36-.94-65.88,11.43-95l4.36-.35C131.51,291.6,146.35,321.44,133,357.39Z" style="fill:#fff;opacity:0.2"></path><path d="M149.42,355.84l-5.1.48c12.7-35.83-2.64-65.58,9-94.57l4.34-.35C146.26,290.35,161.83,320.06,149.42,355.84Z" style="fill:#fff;opacity:0.2"></path><path d="M165.78,354.3l-5.08.48c11.76-35.66-4.32-65.28,6.51-94.15l4.33-.35C161,289.11,177.24,318.69,165.78,354.3Z" style="fill:#fff;opacity:0.2"></path><path d="M182.06,352.76l-5.05.48c10.81-35.49-6-65,4.08-93.73l4.31-.35C175.57,287.87,192.59,317.32,182.06,352.76Z" style="fill:#fff;opacity:0.2"></path><path d="M198.27,351.24l-5,.47c9.89-35.33-7.63-64.68,1.68-93.31l4.29-.34C190.13,286.64,207.86,316,198.27,351.24Z" style="fill:#fff;opacity:0.2"></path><path d="M125.28,278.38c.28-1.56.62-3.12,1-4.68l80.29-6.57c-.17,1.52-.28,3.05-.34,4.57Z" style="fill:#fff;opacity:0.2"></path><path d="M123.77,293.83c0-1.63.13-3.26.24-4.88l82.5-6.93c.12,1.58.28,3.17.46,4.76Z" style="fill:#fff;opacity:0.2"></path><path d="M123.73,310c0-1.72,0-3.43,0-5.13l84.78-7.32c.26,1.65.52,3.32.78,5Z" style="fill:#fff;opacity:0.2"></path><path d="M123.39,327.18c.12-1.83.2-3.65.25-5.46l87.2-7.75c.2,1.76.38,3.53.53,5.32Z" style="fill:#fff;opacity:0.2"></path><path d="M120.79,345.57q.69-3,1.18-5.87l89.79-8.22q-.07,2.83-.33,5.72Z" style="fill:#fff;opacity:0.2"></path></g><path d="M191.82,193.46c-.07-.08,0-.07,0-.07h0l.07.06.18.17.44.4c.31.28.63.57,1,.86.68.57,1.39,1.17,2.13,1.72a42,42,0,0,0,4.6,3A37.4,37.4,0,0,0,205.1,202a34.18,34.18,0,0,0,5.21,1.5l-4.28.65c1.72-.5,3.56-1.13,5.45-1.79s3.85-1.39,5.8-2.16l6-2.27c2-.73,4.09-1.53,6.12-2.17l.24-.07a5.35,5.35,0,0,1,5.66,8.6,65.93,65.93,0,0,1-4.85,5c-1.68,1.58-3.43,3.07-5.24,4.53s-3.7,2.84-5.69,4.15a59.24,59.24,0,0,1-6.45,3.72,6.37,6.37,0,0,1-3,.67l-1.29,0a43.56,43.56,0,0,1-9.16-1.13c-1.5-.36-3-.78-4.45-1.27s-2.87-1.08-4.25-1.72a46.81,46.81,0,0,1-7.87-4.6,43.81,43.81,0,0,1-3.56-2.87c-.58-.52-1.15-1.05-1.71-1.62l-.86-.9-.45-.49-.58-.68a10.47,10.47,0,0,1,15.94-13.59Z" style="fill:#b65b52"></path><path d="M228.42,198.71l3.67,4.81c5.39,3.36,8.51-4.32,8.51-4.32l4.4-4.4a3.2,3.2,0,0,0,0-4.15l-2.54-3.38a3.35,3.35,0,0,0-4.55-1l-4.43,3.55a6.61,6.61,0,0,0-2.05,2.49Z" style="fill:#b55b52"></path><path d="M174.5,182.7c9.68.75,22.25,13.73,22.25,13.73.83,3.86.22,18.34-6.47,23.51,0,0-11.51-.57-16.45-8.5C168.47,202.82,164.23,181.9,174.5,182.7Z" style="fill:#407BFF"></path><path d="M169.52,147.06c2.82-5.66-4.79-13.3-10.63-8s-10.09,4.24-15,4.65c-6.48.55-3.47,6.87-3.47,6.87s-10.59-2-6.27,8.95c5.15,13.05-6.51,20.86-1.13,33.18s20.66,14.72,30.58,13.33c0,0-3-7.58,2.92-13.33,11.94-11.61-4-21.4-2.68-31.84C168.76,161.76,166,154.06,169.52,147.06Z" style="fill:#263238"></path><path d="M163.88,160.87,161,162.41c-.33,4.42,5.32,10.37,8.41,14.25s4,7.84,3.13,15C178.54,174.55,164.61,171.37,163.88,160.87Z" style="fill:#263238"></path><path d="M160.91,162.22a8.05,8.05,0,0,0,4.61,4.14c2.7.92,4.24-1.45,3.64-4.08-.53-2.37-2.58-5.7-5.37-5.49A3.68,3.68,0,0,0,160.91,162.22Z" style="fill:#b55b52"></path><path d="M127.78,423.65h2.9l.79-1.27,1.52,1.28h17.48a8.89,8.89,0,0,0-.74-4.31s-5.23-.52-7.24-3.32a.62.62,0,0,0-.65-.28c-1.74.39-8.66,1.8-12.47.32a.63.63,0,0,0-.85.62A49.17,49.17,0,0,1,127.78,423.65Z" style="fill:#263238"></path></g></svg>