<svg xmlns="http://www.w3.org/2000/svg" viewBox="0 0 500 500"><g id="freepik--background-complete--inject-1"><rect y="382.4" width="500" height="0.25" style="fill:#ebebeb"></rect><rect x="416.78" y="398.49" width="33.12" height="0.25" style="fill:#ebebeb"></rect><rect x="322.53" y="401.21" width="8.69" height="0.25" style="fill:#ebebeb"></rect><rect x="396.59" y="389.21" width="19.19" height="0.25" style="fill:#ebebeb"></rect><rect x="52.46" y="390.89" width="43.19" height="0.25" style="fill:#ebebeb"></rect><rect x="104.56" y="390.89" width="6.33" height="0.25" style="fill:#ebebeb"></rect><rect x="131.47" y="395.11" width="93.68" height="0.25" style="fill:#ebebeb"></rect><path d="M237,337.8H43.91a5.71,5.71,0,0,1-5.7-5.71V60.66A5.71,5.71,0,0,1,43.91,55H237a5.71,5.71,0,0,1,5.71,5.71V332.09A5.71,5.71,0,0,1,237,337.8ZM43.91,55.2a5.46,5.46,0,0,0-5.45,5.46V332.09a5.46,5.46,0,0,0,5.45,5.46H237a5.47,5.47,0,0,0,5.46-5.46V60.66A5.47,5.47,0,0,0,237,55.2Z" style="fill:#ebebeb"></path><path d="M453.31,337.8H260.21a5.72,5.72,0,0,1-5.71-5.71V60.66A5.72,5.72,0,0,1,260.21,55h193.1A5.71,5.71,0,0,1,459,60.66V332.09A5.71,5.71,0,0,1,453.31,337.8ZM260.21,55.2a5.47,5.47,0,0,0-5.46,5.46V332.09a5.47,5.47,0,0,0,5.46,5.46h193.1a5.47,5.47,0,0,0,5.46-5.46V60.66a5.47,5.47,0,0,0-5.46-5.46Z" style="fill:#ebebeb"></path><rect x="82.53" y="92.06" width="96.58" height="124.29" transform="translate(285.02 23.38) rotate(90)" style="fill:#e0e0e0"></rect><rect x="70.4" y="107.63" width="120.84" height="93.13" transform="translate(261.64 308.4) rotate(180)" style="fill:#ebebeb"></rect><polygon points="175.25 186.21 86.39 186.21 86.39 151.26 87.19 151.26 87.19 185.41 174.44 185.41 174.44 132.28 175.25 132.28 175.25 186.21" style="fill:#e0e0e0"></polygon><rect x="93.43" y="146.21" width="0.8" height="39.6" style="fill:#e0e0e0"></rect><rect x="100.15" y="146.21" width="0.8" height="39.6" style="fill:#e0e0e0"></rect><rect x="106.88" y="146.21" width="0.8" height="39.6" style="fill:#e0e0e0"></rect><rect x="113.6" y="136.2" width="0.8" height="49.61" style="fill:#e0e0e0"></rect><rect x="120.33" y="146.21" width="0.8" height="39.6" style="fill:#e0e0e0"></rect><rect x="127.05" y="157.21" width="0.8" height="28.59" style="fill:#e0e0e0"></rect><rect x="133.78" y="157.21" width="0.8" height="28.59" style="fill:#e0e0e0"></rect><rect x="140.5" y="166.22" width="0.8" height="19.59" style="fill:#e0e0e0"></rect><rect x="147.23" y="157.21" width="0.8" height="28.59" style="fill:#e0e0e0"></rect><rect x="153.95" y="146.21" width="0.8" height="39.6" style="fill:#e0e0e0"></rect><rect x="160.68" y="146.21" width="0.8" height="39.6" style="fill:#e0e0e0"></rect><rect x="167.41" y="136.2" width="0.8" height="49.61" style="fill:#e0e0e0"></rect><polygon points="138.83 173.83 114.03 141.61 99.27 157.4 93.04 150.66 87.27 157.26 81.24 151.99 92.88 138.69 99.3 145.65 114.61 129.27 139.39 161.44 172.31 125.89 178.18 131.33 138.83 173.83" style="fill:#f5f5f5"></polygon><polygon points="168.28 124.34 179.74 123.69 180.39 135.15 168.28 124.34" style="fill:#f5f5f5"></polygon><rect x="315.26" y="126.16" width="95.36" height="4.9" style="fill:#e0e0e0"></rect><rect x="319.65" y="108.1" width="4.2" height="18.06" style="fill:#ebebeb"></rect><rect x="339.97" y="108.1" width="4.2" height="18.06" style="fill:#ebebeb"></rect><rect x="364.59" y="107.87" width="4.2" height="18.06" transform="translate(-14.53 63.97) rotate(-9.78)" style="fill:#ebebeb"></rect><rect x="324.86" y="110.48" width="4.2" height="15.68" style="fill:#ebebeb"></rect><rect x="334.51" y="110.48" width="4.2" height="15.68" style="fill:#ebebeb"></rect><rect x="358.89" y="110.48" width="4.2" height="15.68" style="fill:#ebebeb"></rect><rect x="347.23" y="110.21" width="4.2" height="15.68" transform="translate(-17.29 78.57) rotate(-12.53)" style="fill:#ebebeb"></rect><rect x="330.59" y="107.2" width="2.1" height="18.96" style="fill:#ebebeb"></rect><rect x="355.58" y="107.2" width="2.1" height="18.96" style="fill:#ebebeb"></rect><rect x="381" y="111.86" width="20.47" height="14.13" style="fill:#ebebeb"></rect><rect x="315.26" y="162.74" width="95.36" height="4.9" transform="translate(725.89 330.37) rotate(180)" style="fill:#e0e0e0"></rect><rect x="402.03" y="144.67" width="4.2" height="18.06" transform="translate(808.27 307.41) rotate(180)" style="fill:#ebebeb"></rect><rect x="381.72" y="144.67" width="4.2" height="18.06" transform="translate(767.64 307.41) rotate(180)" style="fill:#ebebeb"></rect><rect x="357.09" y="144.45" width="4.2" height="18.06" transform="translate(687.1 365.73) rotate(-170.22)" style="fill:#ebebeb"></rect><rect x="396.83" y="147.05" width="4.2" height="15.68" transform="translate(797.86 309.79) rotate(180)" style="fill:#ebebeb"></rect><rect x="387.17" y="147.05" width="4.2" height="15.68" transform="translate(778.54 309.79) rotate(180)" style="fill:#ebebeb"></rect><rect x="362.8" y="147.05" width="4.2" height="15.68" transform="translate(729.8 309.79) rotate(180)" style="fill:#ebebeb"></rect><rect x="374.45" y="146.79" width="4.2" height="15.68" transform="translate(710.6 387.24) rotate(-167.47)" style="fill:#ebebeb"></rect><rect x="393.19" y="143.78" width="2.1" height="18.96" transform="translate(788.49 306.51) rotate(180)" style="fill:#ebebeb"></rect><rect x="368.21" y="143.78" width="2.1" height="18.96" transform="translate(738.51 306.51) rotate(180)" style="fill:#ebebeb"></rect><rect x="324.41" y="148.44" width="20.47" height="14.13" transform="translate(669.3 311.01) rotate(180)" style="fill:#ebebeb"></rect><rect x="309.24" y="191.66" width="53.48" height="190.67" style="fill:#f5f5f5"></rect><rect x="313.85" y="197.1" width="44.26" height="180.91" style="fill:#ebebeb"></rect><rect x="321.91" y="202.42" width="28.14" height="1.86" style="fill:#e0e0e0"></rect><rect x="321.91" y="210.48" width="28.14" height="1.86" style="fill:#e0e0e0"></rect><rect x="321.91" y="218.54" width="28.14" height="1.86" style="fill:#e0e0e0"></rect><rect x="321.91" y="226.6" width="28.14" height="1.86" style="fill:#e0e0e0"></rect><rect x="321.91" y="234.66" width="28.14" height="1.86" style="fill:#e0e0e0"></rect><rect x="321.91" y="242.72" width="28.14" height="1.86" style="fill:#e0e0e0"></rect><rect x="321.91" y="250.78" width="28.14" height="1.86" style="fill:#e0e0e0"></rect><rect x="321.91" y="316.33" width="28.14" height="1.86" style="fill:#e0e0e0"></rect><rect x="321.91" y="324.39" width="28.14" height="1.86" style="fill:#e0e0e0"></rect><rect x="321.91" y="332.45" width="28.14" height="1.86" style="fill:#e0e0e0"></rect><rect x="321.91" y="340.51" width="28.14" height="1.86" style="fill:#e0e0e0"></rect><rect x="321.91" y="348.57" width="28.14" height="1.86" style="fill:#e0e0e0"></rect><rect x="321.91" y="356.63" width="28.14" height="1.86" style="fill:#e0e0e0"></rect><rect x="321.91" y="364.69" width="28.14" height="1.86" style="fill:#e0e0e0"></rect><path d="M351.44,278.37a3.12,3.12,0,1,1-3.11-3.12A3.12,3.12,0,0,1,351.44,278.37Z" style="fill:#e0e0e0"></path><rect x="364.3" y="191.66" width="53.48" height="190.67" style="fill:#f5f5f5"></rect><rect x="368.91" y="197.1" width="44.26" height="180.91" style="fill:#ebebeb"></rect><rect x="376.96" y="202.42" width="28.14" height="1.86" style="fill:#e0e0e0"></rect><rect x="376.96" y="210.48" width="28.14" height="1.86" style="fill:#e0e0e0"></rect><rect x="376.96" y="218.54" width="28.14" height="1.86" style="fill:#e0e0e0"></rect><rect x="376.96" y="226.6" width="28.14" height="1.86" style="fill:#e0e0e0"></rect><rect x="376.96" y="234.66" width="28.14" height="1.86" style="fill:#e0e0e0"></rect><rect x="376.96" y="242.72" width="28.14" height="1.86" style="fill:#e0e0e0"></rect><rect x="376.96" y="250.78" width="28.14" height="1.86" style="fill:#e0e0e0"></rect><rect x="376.96" y="316.33" width="28.14" height="1.86" style="fill:#e0e0e0"></rect><rect x="376.96" y="324.39" width="28.14" height="1.86" style="fill:#e0e0e0"></rect><rect x="376.96" y="332.45" width="28.14" height="1.86" style="fill:#e0e0e0"></rect><rect x="376.96" y="340.51" width="28.14" height="1.86" style="fill:#e0e0e0"></rect><rect x="376.96" y="348.57" width="28.14" height="1.86" style="fill:#e0e0e0"></rect><rect x="376.96" y="356.63" width="28.14" height="1.86" style="fill:#e0e0e0"></rect><rect x="376.96" y="364.69" width="28.14" height="1.86" style="fill:#e0e0e0"></rect><path d="M406.49,278.37a3.11,3.11,0,1,1-3.11-3.12A3.11,3.11,0,0,1,406.49,278.37Z" style="fill:#e0e0e0"></path></g><g id="freepik--Shadow--inject-1"><ellipse id="freepik--path--inject-1" cx="250" cy="416.24" rx="193.89" ry="11.32" style="fill:#f5f5f5"></ellipse></g><g id="freepik--Plant--inject-1"><polygon points="148.53 414.82 110.92 414.82 105.92 378.24 153.53 378.24 148.53 414.82" style="fill:#263238"></polygon><path d="M129.25,378.29s-5.27-24.88,4.32-38.36-8.67-.16-10.77,12.46c0,0-3.14-22.56,6.16-38.43s-8.1-2.84-9.58,13.51c0,0-2.85-20.13,1.42-31.44s-3.16-4-6,3.06.89,24.64.89,24.64-7.46-32.46-14.52-29.88,10.56,23.86,13,34.92c0,0-8.32-14.89-14.64-11.79s9.78,4.64,17.16,26.85l2.59,10.41s-7.67-14.7-12.68-10.06,14.86,12.64,19.48,34.91Z" style="fill:#407BFF"></path><path d="M128.22,379.73s-1.11-31.38-16.61-44.67,10.33-2.76,16.61,11.72c0,0-3-28-18.83-44.2s8.86-5.81,15.5,13.34c0,0-2.58-25-11.07-37.24s2.58-5.78,8.12,1.87,6.28,29.78,6.28,29.78-.74-41.11,8.49-40.11-5.54,31.71-5.17,45.7c0,0,5.53-20.32,14-18.49S135.23,305.9,133,334.69v13.25s4.8-19.89,12.19-15.83-14,19.56-12.92,47.62Z" style="fill:#407BFF"></path><path d="M128.22,379.73s-1.11-31.38-16.61-44.67,10.33-2.76,16.61,11.72c0,0-3-28-18.83-44.2s8.86-5.81,15.5,13.34c0,0-2.58-25-11.07-37.24s2.58-5.78,8.12,1.87,6.28,29.78,6.28,29.78-.74-41.11,8.49-40.11-5.54,31.71-5.17,45.7c0,0,5.53-20.32,14-18.49S135.23,305.9,133,334.69v13.25s4.8-19.89,12.19-15.83-14,19.56-12.92,47.62Z" style="fill:#fff;isolation:isolate;opacity:0.2"></path><path d="M101.2,375.27v3.48a4.22,4.22,0,0,0,4.21,4.21h49.1a4.22,4.22,0,0,0,4.21-4.21v-3.48Z" style="fill:#263238"></path><path d="M101.2,375.27v3.48a4.22,4.22,0,0,0,4.21,4.21h49.1a4.22,4.22,0,0,0,4.21-4.21v-3.48Z" style="fill:#fff;isolation:isolate;opacity:0.2"></path></g><g id="freepik--Character--inject-1"><path d="M312.18,177.2c-5.48.1-12.49,8.81-10.67,25s4.59,34.53,4.59,34.53,10.29-.06,17.64-2.24,16.38-29.35,11.93-41.8-9.34-15.24-14-16.62S312.18,177.2,312.18,177.2Z" style="fill:#263238"></path><path d="M328.11,232.45c.45,4.49.72,9,.87,13.44.06,2.24.12,4.48.13,6.73v1.92c0,.66-.05,1.33-.12,2-.12,1.27-.31,2.49-.54,3.67a66.32,66.32,0,0,1-1.73,6.87c-.66,2.22-1.42,4.39-2.23,6.53a125,125,0,0,1-5.5,12.5,2.4,2.4,0,0,1-4.45-1.73l0,0c1.19-4.21,2.33-8.51,3.35-12.75a105.29,105.29,0,0,0,2.37-12.6c.12-1,.18-2,.2-3,0-.48,0-.93,0-1.38s-.05-.82-.13-1.43l-.73-6.63c-.45-4.41-.85-8.85-1.12-13.26v0a4.83,4.83,0,0,1,9.62-.79Z" style="fill:#ce7a63"></path><path d="M324.8,219c-5.84,3-7.83,10.13-6.81,24,3.44,3.47,13,3.32,13,3.32S335.29,223.71,324.8,219Z" style="fill:#407BFF"></path><path d="M331.3,243.67c-.15,1.61-.31,2.6-.31,2.6s-9.56.15-13-3.32c-1-13.86,1-21,6.82-24,5.54,2.51,6.36,10.34,6.68,16.72A62.42,62.42,0,0,1,331.3,243.67Z" style="fill:#fff;opacity:0.4"></path><path d="M331.3,243.67c-6.48-1.74-6.69-10.12-6.69-10.12a21.62,21.62,0,0,1,6.88,2.13A62.42,62.42,0,0,1,331.3,243.67Z" style="opacity:0.2"></path><path d="M324.6,235.83c1.9,2.49,18,11.66,25.22,19.13l23.31-12.34c-6.15-6.55-11.79-15.14-20.08-34.4a7.43,7.43,0,0,0-11-3.48c-1.06.7-2.16,1.46-3.27,2.27a102.7,102.7,0,0,0-11.21,9.12c-1.13,1.1-2.27,2.28-3.34,3.43C320.34,223.71,321.19,231.37,324.6,235.83Z" style="fill:#407BFF"></path><path d="M324.6,235.83c1.9,2.49,18,11.66,25.22,19.13l23.31-12.34c-6.15-6.55-11.79-15.14-20.08-34.4a7.43,7.43,0,0,0-11-3.48c-1.06.7-2.16,1.46-3.27,2.27a102.7,102.7,0,0,0-11.21,9.12c-1.13,1.1-2.27,2.28-3.34,3.43C320.34,223.71,321.19,231.37,324.6,235.83Z" style="fill:#fff;opacity:0.4"></path><path d="M353.83,203.46a87.77,87.77,0,0,1,12.44,2.91,52.81,52.81,0,0,1,6.19,2.35,31.56,31.56,0,0,1,3.15,1.63,17.45,17.45,0,0,1,3.27,2.47,10.46,10.46,0,0,1,1.67,2.09,9.2,9.2,0,0,1,1,2.56,15.34,15.34,0,0,1,.36,4.06,35,35,0,0,1-.95,6.72,65,65,0,0,1-4.15,12,2.41,2.41,0,0,1-4.57-1.35l0-.09c.59-3.89,1.15-7.89,1.42-11.69a33.88,33.88,0,0,0,0-5.41,7.56,7.56,0,0,0-.4-2c-.08-.17-.17-.34-.16-.23s-.13-.1-.29-.23a11.28,11.28,0,0,0-1.72-1,23,23,0,0,0-2.32-1c-1.67-.63-3.46-1.2-5.3-1.69-3.66-1-7.58-1.86-11.28-2.58l-.12,0a4.82,4.82,0,0,1,1.68-9.5Z" style="fill:#ce7a63"></path><path d="M340.54,205.64c4-5.21,9.67-5.25,20.41-1.93,1.79,3.95-1,13.26-1,13.26S344.75,218.15,340.54,205.64Z" style="fill:#407BFF"></path><path d="M340.54,205.64c4-5.21,9.67-5.25,20.41-1.93,1.79,3.95-1,13.26-1,13.26S344.75,218.15,340.54,205.64Z" style="fill:#fff;opacity:0.4"></path><path d="M381.34,246.4l-2,.48a2.43,2.43,0,0,1-2.15-.53l-2.74-2.4a4.49,4.49,0,0,1-1.52-3.84l.09-.9c3.29-1,7.61.29,7.61.29l1.27.24a2,2,0,0,1,1.67,2.32l-.45,2.53A2.32,2.32,0,0,1,381.34,246.4Z" style="fill:#ce7a63"></path><path d="M379.81,383.23l-1.21.77-1.29-1.27-2.83,4.36-10.1,6.5s-2.65-.59,1.34-5a4.36,4.36,0,0,0,.51-.7l.17-.28c1.51-2.65,2.45-7.75,2.62-8.79,0-.12,0-.19,0-.19l5.28-3.38.27-.18.33.16.23.12.12.07.28.16h0C377,376.45,379.65,378.33,379.81,383.23Z" style="fill:#263238"></path><path d="M375.58,375.62c-.27-.07-.53.14-.8.55a19.66,19.66,0,0,0-1.37,3.36,24.82,24.82,0,0,1-1.77,4.26c-1.48,2.49-3.62,4.54-5.41,4.13l.17-.28c1.26-2.32,1.92-7.13,2.17-9.3.07-.69.11-1.11.11-1.11l4.46-2.87,1,.49h0l.48.25.33.16.23.12.12.07.28.16Z" style="fill:#ce7a63"></path><path d="M374.78,376.17c.26.53.53,1.06.8,1.58-.11.63-1.07,1.31-2.17,1.78-1.3.57-2.81.85-3.36.43l-1-1.11c-.13-.16-.29-.33-.45-.51-1-1.12-2.5-2.77-4.3-4.84-11.44-13.1-35.72-42.68-34.07-56,2.19-17.74,19.13-66.18,19.13-66.18l27.41,4.34s-3.5,23.83-28.64,61.08c7.85,12.85,13.28,28.5,19.64,43.82,2,4.82,4.09,9.61,6.38,14.26h0a3.42,3.42,0,0,0,.21.43C374.48,375.58,374.63,375.88,374.78,376.17Z" style="fill:#ce7a63"></path><path d="M379.81,383.23l-1.21.77-1.29-1.27-2.83,4.36-10.1,6.5s-2.65-.59,1.34-5a4.36,4.36,0,0,0,.51-.7l.17-.28c1.26-2.32,1.92-7.13,2.17-9.3-1-1.12-2.5-2.77-4.3-4.84l3.47-12.91c2,4.82,4.09,9.61,6.38,14.26h0l.48.25.33.16.23.12.12.07.28.16h0C377,376.45,379.65,378.33,379.81,383.23Z" style="opacity:0.2"></path><path d="M357.55,252.65s6.31,48.79,9.92,72.27c3.8,24.66,4.28,64.22,3.33,80.35,1.38.8,4.38.24,7.11-.61,0,0,14.64-52.25,6.34-77.31,7.78-57.05-3.47-71-3.47-71Z" style="fill:#ce7a63"></path><path d="M327.71,195c2,4.4,6.13,12,10.44,12.48,0,0-3.84,2.27-7.45,12.66-4.55-1.31-3.77-3.54-3.77-3.54,3.32-4.29,1-7.37-1.76-9.77Z" style="fill:#ce7a63"></path><path d="M326.67,199.85l-1.5,7a15.62,15.62,0,0,1,1.81,1.83c1.38-1.48,2.24-5,1.21-6.83A6.84,6.84,0,0,0,326.67,199.85Z" style="opacity:0.2"></path><path d="M307.45,286.43l1.17-2.07a2.74,2.74,0,0,1,2.11-1.39l4.15-.45a5.15,5.15,0,0,1,4.41,1.71l.69.77c-1.7,3.57-6.16,6.17-6.16,6.17l-1.19.88a2.29,2.29,0,0,1-3.24-.4l-1.79-2.33A2.67,2.67,0,0,1,307.45,286.43Z" style="fill:#ce7a63"></path><path d="M324.9,185.28c3.64,6.71,5.32,9.47,4.27,15-1.58,8.27-10.26,11.63-15.75,6.23-4.94-4.87-10.07-15-5.63-21.84A9.79,9.79,0,0,1,324.9,185.28Z" style="fill:#ce7a63"></path><path d="M318.25,192.3c.33.55.32,1.19,0,1.42s-.87,0-1.2-.58-.33-1.18,0-1.41S317.92,191.75,318.25,192.3Z" style="fill:#263238"></path><path d="M311.59,196.64c.33.55.33,1.19,0,1.42s-.88,0-1.21-.57-.32-1.19,0-1.42S311.26,196.09,311.59,196.64Z" style="fill:#263238"></path><path d="M310.56,196l-1.46.47S310.35,197.07,310.56,196Z" style="fill:#263238"></path><path d="M314.31,196.47a18.84,18.84,0,0,1,.28,4.78,2.56,2.56,0,0,0,2.05-.9Z" style="fill:#ba4d3c"></path><path d="M320.8,200.33a7.08,7.08,0,0,1-.81.68.17.17,0,0,1-.25-.06.2.2,0,0,1,.06-.27,5.32,5.32,0,0,0,2.28-4,.18.18,0,1,1,.36,0A5.59,5.59,0,0,1,320.8,200.33Z" style="fill:#263238"></path><path d="M317.1,188a.33.33,0,0,1-.26.11,2.73,2.73,0,0,0-2.33,1.14.35.35,0,0,1-.5.11.4.4,0,0,1-.1-.54,3.4,3.4,0,0,1,2.94-1.48.38.38,0,0,1,.35.39A.36.36,0,0,1,317.1,188Z" style="fill:#263238"></path><path d="M305.7,194.24a.37.37,0,0,1-.26-.08.37.37,0,0,1,0-.52,4,4,0,0,1,3.13-1.52.33.33,0,0,1,.31.4.41.41,0,0,1-.42.35,3.12,3.12,0,0,0-2.47,1.22A.41.41,0,0,1,305.7,194.24Z" style="fill:#263238"></path><path d="M317.21,191.65l-1.46.48S317,192.72,317.21,191.65Z" style="fill:#263238"></path><path d="M313,183.63s8.12,7.81,13.89,5.75l2.57,6.62s5-10-3.14-17.38-25.84-1-22.28,20.14C304.06,198.76,306,189.3,313,183.63Z" style="fill:#263238"></path><path d="M330.26,189.16a6.17,6.17,0,0,1-1.48,4.44c-1.4,1.54-3.21.36-3.76-1.7-.5-1.85-.36-4.89,1.49-5.65S330.12,187.1,330.26,189.16Z" style="fill:#ce7a63"></path><path d="M347.39,252.67,371,239.53l3.72,3.81s8.07,6.78,12.24,19.76,0,51.32,0,51.32L385,296.47l-10.29,17.9L331.5,304.16l16.18-48Z" style="fill:#263238"></path><polygon points="347.99 252.78 348.72 255.13 347.39 255.84 346.99 253.33 347.99 252.78"></polygon><polygon points="359.93 246.15 361.37 248.41 349.36 254.79 348.6 252.44 359.93 246.15"></polygon><polygon points="369.25 240.97 370.8 243.4 362.34 247.89 360.83 245.65 369.25 240.97"></polygon><polygon points="373.83 241.79 371.78 242.88 370.16 240.47 371.85 239.53 373.83 241.79"></polygon><path d="M351.1,251.42l.93,1.72a.44.44,0,0,0,.59.19l3.39-1.77a.45.45,0,0,0,.19-.61l-1-1.81a.44.44,0,0,0-.6-.18l-3.36,1.87A.43.43,0,0,0,351.1,251.42Z" style="fill:#fff"></path><path d="M378.36,414.45h-1.43l-.4-1.76-4.74,2.14h-12s-1.91-1.92,3.81-3.45a4.31,4.31,0,0,0,.81-.31c3.05-1.43,7.39-6.26,7.39-6.26h6.59a8.37,8.37,0,0,1,.54.95C379.64,407.2,380.89,410.24,378.36,414.45Z" style="fill:#263238"></path><path d="M378.92,405.75v0c-.87-1-4.83,3.29-7.73,4.74-2.59,1.29-5.5,1.86-6.79.55,3.05-1.43,7.85-7.68,7.85-7.68h5.3S378.61,405.13,378.92,405.75Z" style="fill:#ce7a63"></path><path d="M339.15,219.51c-.73-1.81-7.91-.53-7.91-.53-2.59,1-5.36,5.82-3.73,7,1.33.93,2.67-3.91,2.83-4.47l-1.08,7.07h1.81l.36-6.92,3.72,5.31,1.61-1-4.42-5.47C337.6,223,339.86,221.32,339.15,219.51Zm-11.07,5c-.32-1.09,1.57-3.37,1.57-3.37S328.4,225.61,328.08,224.52Zm4.87-4.88s4.52,0,4.62.7S334.05,220.4,333,219.64Z" style="fill:#407BFF"></path><path d="M331.5,218c2.66-1.6,7.38.3,7.38.3s1.4-7.63.89-12a29.9,29.9,0,0,1-3.17.38S331.77,215.51,331.5,218Z" style="fill:#fff"></path><path d="M328.91,219.49s-2.69.68-2.64,5.2c-3-6.87-.14-8.31,1.45-9.24A3.31,3.31,0,0,0,328.91,219.49Z" style="fill:#fff"></path></g><g id="freepik--Levels--inject-1"><path d="M201.87,147.05H191.74l.91-12.37a1.31,1.31,0,0,1,1.31-1.22h5.69a1.31,1.31,0,0,1,1.31,1.22Z" style="fill:#407BFF"></path><path d="M191.38,143.78h10.85a1.3,1.3,0,0,1,1.3,1.3v3.36a0,0,0,0,1,0,0H190.08a0,0,0,0,1,0,0v-3.36A1.3,1.3,0,0,1,191.38,143.78Z" style="fill:#263238"></path><path d="M191.38,143.78h10.85a1.3,1.3,0,0,1,1.3,1.3v3.36a0,0,0,0,1,0,0H190.08a0,0,0,0,1,0,0v-3.36A1.3,1.3,0,0,1,191.38,143.78Z" style="fill:#fff;opacity:0.6000000000000001"></path><circle cx="196.14" cy="140.37" r="2.28" style="fill:#fff;opacity:0.6000000000000001"></circle><circle cx="198.83" cy="137.21" r="1.08" style="fill:#fff;opacity:0.4"></circle><path d="M277.92,147.05H267.78l.91-12.37a1.32,1.32,0,0,1,1.32-1.22h5.69a1.31,1.31,0,0,1,1.31,1.22Z" style="fill:#407BFF"></path><path d="M267.43,143.78h10.85a1.3,1.3,0,0,1,1.3,1.3v3.36a0,0,0,0,1,0,0H266.12a0,0,0,0,1,0,0v-3.36A1.3,1.3,0,0,1,267.43,143.78Z" style="fill:#263238"></path><path d="M267.43,143.78h10.85a1.3,1.3,0,0,1,1.3,1.3v3.36a0,0,0,0,1,0,0H266.12a0,0,0,0,1,0,0v-3.36A1.3,1.3,0,0,1,267.43,143.78Z" style="fill:#fff;opacity:0.6000000000000001"></path><circle cx="272.19" cy="140.37" r="2.28" style="fill:#fff;opacity:0.6000000000000001"></circle><circle cx="274.88" cy="137.21" r="1.08" style="fill:#fff;opacity:0.4"></circle><path d="M211.22,126.12h47.21a2.11,2.11,0,0,1,2.11,2.11V150.3a0,0,0,0,1,0,0H209.11a0,0,0,0,1,0,0V128.23A2.11,2.11,0,0,1,211.22,126.12Z" style="fill:#263238"></path><path d="M189.59,146.21h91.32a6.17,6.17,0,0,1,6.17,6.17V414.82a0,0,0,0,1,0,0H183.43a0,0,0,0,1,0,0V152.37A6.17,6.17,0,0,1,189.59,146.21Z" style="fill:#263238"></path><path d="M189.59,146.21h91.32a6.17,6.17,0,0,1,6.17,6.17V414.82a0,0,0,0,1,0,0H183.43a0,0,0,0,1,0,0V152.37A6.17,6.17,0,0,1,189.59,146.21Z" style="fill:#fff;opacity:0.30000000000000004"></path><rect x="188.55" y="161.86" width="80.4" height="171.22" style="fill:#263238"></rect><rect x="190.55" y="164.41" width="76.4" height="32.13" style="fill:#407BFF"></rect><rect x="190.55" y="164.41" width="76.4" height="32.13" style="opacity:0.4"></rect><path d="M222.08,175.14v9.16h-1.71v-3.93h-4.74v3.93h-1.7v-9.16h1.7v3.78h4.74v-3.78Z" style="fill:#fff"></path><path d="M224.54,175.14h1.7v9.16h-1.7Z" style="fill:#fff"></path><path d="M235,179.61h1.61v3.66a5.79,5.79,0,0,1-3.58,1.16,4.72,4.72,0,1,1,0-9.42,4.74,4.74,0,0,1,3.68,1.49l-1.07,1a3.4,3.4,0,0,0-2.53-1,3.22,3.22,0,1,0,0,6.44,3.7,3.7,0,0,0,1.88-.47Z" style="fill:#fff"></path><path d="M247,175.14v9.16h-1.7v-3.93h-4.74v3.93h-1.71v-9.16h1.71v3.78h4.74v-3.78Z" style="fill:#fff"></path><rect x="190.55" y="197.97" width="76.4" height="32.13" style="fill:#407BFF"></rect><g style="opacity:0.2"><rect x="190.55" y="197.97" width="76.4" height="32.13"></rect></g><rect x="190.55" y="231.53" width="76.4" height="32.13" style="fill:#407BFF"></rect><path d="M222.35,251.43v-6.08l-3,5h-.76l-3-4.95v6h-1.63v-9.17h1.4l3.64,6.08,3.58-6.08H224v9.17Z" style="fill:#fff"></path><path d="M233.31,250v1.43h-6.87v-9.17h6.69v1.43h-5v2.38h4.42v1.4h-4.42V250Z" style="fill:#fff"></path><path d="M235.21,242.26h4c3,0,5,1.84,5,4.59s-2,4.58-5,4.58h-4Zm3.93,7.73a3.15,3.15,0,1,0,0-6.29h-2.23V250Z" style="fill:#fff"></path><rect x="190.55" y="265.1" width="76.4" height="32.13" style="fill:#407BFF"></rect><g style="opacity:0.2"><rect x="190.55" y="265.1" width="76.4" height="32.13" style="fill:#fff"></rect></g><rect x="190.55" y="298.66" width="76.4" height="32.13" style="fill:#407BFF"></rect><rect x="190.55" y="298.66" width="76.4" height="32.13" style="fill:#fff;opacity:0.4"></rect><path d="M213.93,309.39h1.7v7.73h4.8v1.44h-6.5Z" style="fill:#fff"></path><path d="M221,314a4.94,4.94,0,1,1,4.94,4.72A4.69,4.69,0,0,1,221,314Zm8.16,0a3.22,3.22,0,1,0-3.22,3.22A3.13,3.13,0,0,0,229.11,314Z" style="fill:#fff"></path><path d="M245.74,309.39l-3,9.17h-1.81l-2.26-6.79-2.31,6.79H234.5l-3-9.17h1.76l2.28,7,2.37-7h1.57l2.32,7,2.34-7Z" style="fill:#fff"></path><rect x="274.07" y="161.86" width="7.8" height="171.22" style="fill:#263238"></rect><path d="M226.26,142.3l-1.87-2.69a2.17,2.17,0,0,1-.36,0H222v2.67h-1.7v-9.17H224c2.41,0,3.9,1.23,3.9,3.26a2.93,2.93,0,0,1-2,2.9l2.11,3ZM224,134.57h-2v3.66h2c1.5,0,2.27-.69,2.27-1.84S225.45,134.57,224,134.57Z" style="fill:#fff"></path><path d="M229.83,133.13h1.71v9.17h-1.71Z" style="fill:#fff"></path><path d="M233.24,141.33l.59-1.32a5.13,5.13,0,0,0,3,1c1.43,0,2-.51,2-1.19,0-2-5.45-.68-5.45-4.08,0-1.48,1.18-2.74,3.7-2.74a5.83,5.83,0,0,1,3.05.81l-.54,1.33a5,5,0,0,0-2.53-.73c-1.41,0-2,.56-2,1.25,0,2,5.44.68,5.44,4.05,0,1.46-1.19,2.72-3.71,2.72A5.92,5.92,0,0,1,233.24,141.33Z" style="fill:#fff"></path><path d="M245.4,138.46,244,140v2.35h-1.7v-9.17H244v4.7l4.53-4.7h1.91l-3.85,4.1,4.09,5.07h-2Z" style="fill:#fff"></path><polygon points="268.3 332.54 263.59 331.04 268.3 329.54 268.3 332.54" style="fill:#263238"></polygon><polygon points="268.3 326.88 263.59 325.38 268.3 323.88 268.3 326.88" style="fill:#263238"></polygon><polygon points="268.3 321.22 263.59 319.72 268.3 318.22 268.3 321.22" style="fill:#263238"></polygon><polygon points="268.3 315.57 263.59 314.07 268.3 312.57 268.3 315.57" style="fill:#263238"></polygon><polygon points="268.3 309.91 263.59 308.41 268.3 306.91 268.3 309.91" style="fill:#263238"></polygon><polygon points="268.3 304.25 263.59 302.75 268.3 301.25 268.3 304.25" style="fill:#263238"></polygon><polygon points="268.3 299.01 263.59 297.51 268.3 296.01 268.3 299.01" style="fill:#263238"></polygon><polygon points="268.3 293.36 263.59 291.86 268.3 290.36 268.3 293.36" style="fill:#263238"></polygon><polygon points="268.3 287.7 263.59 286.2 268.3 284.7 268.3 287.7" style="fill:#263238"></polygon><polygon points="268.3 282.05 263.59 280.55 268.3 279.05 268.3 282.05" style="fill:#263238"></polygon><polygon points="268.3 276.39 263.59 274.89 268.3 273.39 268.3 276.39" style="fill:#263238"></polygon><polygon points="268.3 270.73 263.59 269.23 268.3 267.73 268.3 270.73" style="fill:#263238"></polygon><polygon points="268.3 265.49 263.59 263.99 268.3 262.49 268.3 265.49" style="fill:#263238"></polygon><polygon points="268.3 259.84 263.59 258.34 268.3 256.84 268.3 259.84" style="fill:#263238"></polygon><polygon points="268.3 254.18 263.59 252.68 268.3 251.18 268.3 254.18" style="fill:#263238"></polygon><polygon points="268.3 248.53 263.59 247.03 268.3 245.53 268.3 248.53" style="fill:#263238"></polygon><polygon points="268.3 242.87 263.59 241.37 268.3 239.87 268.3 242.87" style="fill:#263238"></polygon><polygon points="268.3 237.21 263.59 235.71 268.3 234.21 268.3 237.21" style="fill:#263238"></polygon><polygon points="268.3 231.97 263.59 230.47 268.3 228.97 268.3 231.97" style="fill:#263238"></polygon><polygon points="268.3 226.32 263.59 224.82 268.3 223.32 268.3 226.32" style="fill:#263238"></polygon><polygon points="268.3 220.66 263.59 219.16 268.3 217.66 268.3 220.66" style="fill:#263238"></polygon><polygon points="268.3 215 263.59 213.5 268.3 212 268.3 215" style="fill:#263238"></polygon><polygon points="268.3 209.35 263.59 207.85 268.3 206.35 268.3 209.35" style="fill:#263238"></polygon><polygon points="268.3 203.69 263.59 202.19 268.3 200.69 268.3 203.69" style="fill:#263238"></polygon><polygon points="268.3 198.45 263.59 196.95 268.3 195.45 268.3 198.45" style="fill:#263238"></polygon><polygon points="268.3 192.79 263.59 191.29 268.3 189.79 268.3 192.79" style="fill:#263238"></polygon><polygon points="268.3 187.14 263.59 185.64 268.3 184.14 268.3 187.14" style="fill:#263238"></polygon><polygon points="268.3 181.48 263.59 179.98 268.3 178.48 268.3 181.48" style="fill:#263238"></polygon><polygon points="268.3 175.83 263.59 174.33 268.3 172.83 268.3 175.83" style="fill:#263238"></polygon><polygon points="268.3 170.17 263.59 168.67 268.3 167.17 268.3 170.17" style="fill:#263238"></polygon><polygon points="274.07 294.85 274.07 307.54 292.51 294.85 274.07 294.85" style="fill:#263238"></polygon><polygon points="274.07 294.85 274.07 307.54 292.51 294.85 274.07 294.85" style="fill:#fff;opacity:0.4"></polygon><path d="M267.73,287.68h0l-9.49,4,9.49,4h51.41a1.33,1.33,0,0,0,1.33-1.32V289a1.33,1.33,0,0,0-1.33-1.32Z" style="fill:#263238"></path><path d="M267.73,287.68h0l-9.49,4,9.49,4h51.41a1.33,1.33,0,0,0,1.33-1.32V289a1.33,1.33,0,0,0-1.33-1.32Z" style="fill:#fff;opacity:0.6000000000000001"></path><polygon points="267.62 287.71 258.21 291.66 267.62 295.6 267.62 287.71" style="fill:#fff;opacity:0.6000000000000001"></polygon><polygon points="266.56 289.62 261.71 291.66 266.56 293.69 266.56 289.62" style="fill:#407BFF;opacity:0.6000000000000001"></polygon><path d="M281.36,398.56H189.05V342.67h92.31Zm-91.31-1h90.31V343.67H190.05Z" style="opacity:0.2"></path><rect x="183.43" y="406.74" width="103.65" height="1" style="opacity:0.2"></rect></g></svg>
